<?xml version="1.0" encoding="UTF-8"?>
<svg id="Layer_1" xmlns="http://www.w3.org/2000/svg" version="1.1" viewBox="0 0 185.42 50.75">
  <!-- Generator: Adobe Illustrator 29.8.2, SVG Export Plug-In . SVG Version: 2.1.1 Build 3)  -->
  <defs>
    <style>
      .st0 {
        fill: #ffd426;
      }

      .st1 {
        fill: #fff;
      }
    </style>
  </defs>
  <path class="st1" d="M0,3.32h11.38c0,1.36,1.36,5.83,4.2,14.7l7.52,23.38,4.4-12.94c1.63-4.74,2.17-7.93,2.17-10.98,0-4.95-1.42-9.82-4.47-14.16h12.6c.07.68.2,1.49.2,2.57,0,6.91-2.57,13.08-6.37,23.31l-7.66,20.94h-8.27L0,3.32Z"/>
  <path class="st1" d="M35.16,32.86c0-10.43,6.84-18.02,15.72-18.02,7.66,0,13.28,5.56,14.97,14.09l-20.46,6.3c1.76,4.95,5.42,8.06,10.16,8.06,3.39,0,6.57-1.63,9.01-4.27l1.15,2.64c-2.17,4.07-6.84,9.08-14.36,9.08-9.15,0-16.19-7.32-16.19-17.89ZM44.51,31.84l11.11-3.59c-.88-5.08-3.18-9.55-6.5-9.55-2.85,0-4.95,3.12-4.95,9.08,0,1.42.14,2.78.34,4.07Z"/>
  <path class="st1" d="M68.97,36.99V15.58c0-7.79-.14-12.06-.34-12.81l10.37-1.83v36.05c0,7.79,0,12.06.2,12.87h-10.43c.14-.81.2-5.08.2-12.87Z"/>
  <path class="st1" d="M82.31,32.73c0-10.37,6.57-17.89,16.74-17.89s16.87,7.66,16.87,18.02-6.57,17.89-16.67,17.89-16.94-7.66-16.94-18.02ZM101.35,46.89c2.91,0,4.74-3.32,4.74-8.81,0-8.47-4-19.38-9.15-19.38-2.98,0-4.81,3.32-4.81,8.81,0,8.47,4.07,19.38,9.21,19.38Z"/>
  <path class="st1" d="M158.6,37.13l-1.29-10.91c-.47-3.25-1.76-4.61-3.39-4.61s-3.18,1.15-5.49,4.27l1.56,23.99h-10.77c.07-1.02.07-5.08-.41-12.87l-.61-10.77c-.14-3.25-1.69-4.61-3.39-4.61-1.56,0-3.12,1.22-5.56,4.4v10.98c0,7.79.14,12.06.2,12.87h-10.43c.14-.81.2-5.08.2-12.87v-9.96c0-3.66-.27-7.05-.88-9.96l9.89-1.9c.27,2.03.54,4.2.68,6.44,3.93-4.81,7.25-6.57,10.57-6.57,4,0,7.25,2.44,8.4,6.64,3.93-4.88,7.25-6.64,10.91-6.64,4.61,0,7.79,2.85,8.6,9.28l3.18,25.54h-10.84c.07-1.02-.2-4.95-1.15-12.74Z"/>
  <polygon class="st0" points="178.58 0 185.42 6.44 178.58 12.67 171.73 6.44 178.58 0"/>
  <path class="st1" d="M173.56,36.99v-7.11c0-7.79-.14-12.06-.34-12.81l10.37-1.9v21.82c0,7.79,0,12.06.2,12.87h-10.43c.14-.81.2-5.08.2-12.87Z"/>
</svg>